<svg width="14" height="15" viewBox="0 0 14 15" fill="none" xmlns="http://www.w3.org/2000/svg">
<path d="M13.6598 8.48961L13.796 7.12699C13.796 5.30107 13.1965 3.77493 11.9701 2.54857C10.7438 1.32221 9.21762 0.722656 7.3917 0.722656C5.56579 0.722656 3.98514 1.37672 2.67702 2.68483C1.3689 3.99295 0.714844 5.54634 0.714844 7.39951C0.714844 9.30719 1.39616 10.9423 2.73153 12.305C4.0669 13.6676 5.6748 14.3489 7.52796 14.3489C8.23653 14.3489 8.89059 14.2399 9.54465 14.0491C10.1987 13.8311 10.7438 13.6131 11.1253 13.3951C11.5341 13.1498 11.9429 12.8773 12.2971 12.5775C12.6514 12.2777 12.8967 12.0597 13.0057 11.9234C13.1147 11.7872 13.1965 11.7054 13.251 11.6236L11.4796 9.85224L11.0708 10.37C10.7983 10.6971 10.335 11.0241 9.68091 11.3784C8.9996 11.7327 8.29103 11.8962 7.52796 11.8962C6.46512 11.8962 5.56579 11.5691 4.80272 10.8878C4.03965 10.2065 3.57635 9.4162 3.44009 8.48961H13.6598ZM7.3917 3.03912C8.40004 3.03912 9.21762 3.33889 9.89893 3.9112C10.553 4.51075 10.9618 5.24657 11.1253 6.17315H3.5491C3.79437 5.24657 4.23041 4.51075 4.91173 3.9112C5.56578 3.33889 6.41061 3.03912 7.3917 3.03912Z" fill="white"/>
</svg>
