<svg width="12" height="15" viewBox="0 0 12 15" fill="none" xmlns="http://www.w3.org/2000/svg">
<path d="M11.3195 14.0764V5.6281C11.3195 4.23823 10.8017 3.06637 9.7934 2.13979C8.78506 1.18595 7.47694 0.722656 5.86904 0.722656C5.24224 0.722656 4.61543 0.804414 4.01588 0.967929C3.41632 1.1587 2.92578 1.34946 2.5715 1.56748C2.21721 1.7855 1.86293 2.03078 1.5359 2.33055C1.20887 2.60308 1.01811 2.79384 0.909097 2.90285C0.827339 3.01186 0.745582 3.09362 0.691077 3.17538L2.46249 4.94679L2.81677 4.4835C3.03479 4.18372 3.41632 3.9112 3.98862 3.61142C4.56093 3.31164 5.18773 3.17538 5.86904 3.17538C6.65936 3.17538 7.31342 3.42065 7.83122 3.88394C8.34902 4.34724 8.59429 4.94679 8.59429 5.6281L3.82511 6.44568C2.65325 6.63644 1.69942 7.09974 1.04536 7.83555C0.364047 8.57137 0.00976562 9.4707 0.00976562 10.5335C0.00976562 11.5419 0.445805 12.414 1.31788 13.177C2.21721 13.9674 3.30731 14.3489 4.64268 14.3489C5.10597 14.3489 5.54201 14.2944 5.97805 14.1581C6.44135 14.0491 6.79563 13.9129 7.0954 13.7766C7.39518 13.6403 7.66771 13.4768 7.91298 13.286C8.15825 13.0953 8.32176 12.959 8.43077 12.9045C8.51253 12.8228 8.56704 12.741 8.59429 12.7137V14.0764H11.3195ZM5.05147 11.8962C4.34291 11.8962 3.7706 11.7327 3.36182 11.4056C2.92578 11.0786 2.73501 10.6971 2.73501 10.261C2.73501 9.79773 2.87127 9.38894 3.17105 9.08917C3.47083 8.78939 3.87961 8.57137 4.37016 8.48961L8.59429 7.8083V8.08083C8.59429 9.30719 8.29451 10.2338 7.66771 10.9151C7.0409 11.5691 6.16882 11.8962 5.05147 11.8962Z" fill="white"/>
</svg>
