<svg width="14" height="20" viewBox="0 0 14 20" fill="none" xmlns="http://www.w3.org/2000/svg">
<path d="M10.3695 13.286C10.3695 14.4852 10.0153 15.4662 9.27944 16.2293C8.57088 16.9651 7.67155 17.3467 6.5542 17.3467C6.06365 17.3467 5.57311 17.2649 5.10982 17.1286C4.64653 16.9924 4.29224 16.8289 3.99247 16.6381C3.69269 16.4473 3.42017 16.2566 3.14764 16.0113C2.90237 15.766 2.73885 15.6025 2.6571 15.5207C2.57534 15.439 2.52083 15.3572 2.46633 15.3027L0.69492 17.0741L0.912939 17.3467C1.0492 17.5374 1.29447 17.7827 1.6215 18.0552C1.94853 18.3005 2.33007 18.573 2.76611 18.8455C3.20215 19.0908 3.7472 19.3088 4.42851 19.4996C5.10982 19.6904 5.81838 19.7994 6.5542 19.7994C8.40736 19.7994 9.9335 19.1726 11.2144 17.919C12.468 16.6381 13.0948 15.112 13.0948 13.2588V0.995181H10.3695V2.3578L9.90625 1.94902C9.60647 1.67649 9.14318 1.40397 8.48912 1.13144C7.83506 0.858919 7.1265 0.722656 6.41794 0.722656C4.75554 0.722656 3.33841 1.34946 2.11205 2.63033C0.885687 3.9112 0.286133 5.43733 0.286133 7.26325C0.286133 9.08916 0.885687 10.6153 2.11205 11.8962C3.33841 13.177 4.75554 13.8038 6.41794 13.8038C6.88123 13.8038 7.31727 13.7493 7.78056 13.6403C8.2166 13.5041 8.57088 13.3678 8.87066 13.2315C9.17043 13.0953 9.44296 12.9318 9.68823 12.741C9.9335 12.5502 10.1243 12.414 10.1788 12.3595L10.3695 12.1687V13.286ZM3.01138 7.26325C3.01138 6.11864 3.36566 5.16481 4.10148 4.37449C4.83729 3.58417 5.70937 3.17538 6.69046 3.17538C7.67155 3.17538 8.54363 3.58417 9.27944 4.37449C9.98801 5.16481 10.3695 6.11864 10.3695 7.26325C10.3695 8.40785 9.98801 9.36169 9.27944 10.152C8.54363 10.9423 7.67155 11.3511 6.69046 11.3511C5.70937 11.3511 4.83729 10.9423 4.10148 10.152C3.36566 9.36169 3.01138 8.40785 3.01138 7.26325Z" fill="white"/>
</svg>
